.
..............................Site Info...........................

 -   http://www.scenetime.com  *_*   

SceneTime is going to Close sign up on march/1, hurry up! get in before the doors are closed.

     We care to share . Join us on  http://www.scenetime.com 

    Be the first to get new release at  http://www.scenetime.com

        Seed back for speed


...................................NFO:.................................................                                                                                                     
       
     
     
       
       
     
     
                                         
                                         
                EXVID                    
                                         
         
                                         
         Filled the Archives             
                                         
         
                                         
                With:                    
                                         
         
                                         
                                    
     E240                           
                                    
     SP               (C) 2009      
                                         
     
     
     
                                                                                  
                                                                                   
                 The.Dream.Team.1989.iNTERNAL.DVDRip.XviD-EXViDiNT                  
                                                                                   
                                                                                  
     
                                                                                               
EXViD aims to iNTERNAL those releases which have been lost in the archives.
EXViD aims to PRE non-internal releases which have poor sources and are likely skipped by others. 
http://www.imdb.com/title/tt0097235/
Subtitles: EN, FR, DE, IT, ES, NL, SV, NO, DA, FI, CS, HU, PL
Date: 2012.02

Director: Howard Zieff

Genres: Comedy

Plot:
Dr. Weitzman works with patients in a sanitarium. Convinced that all that his "group" needs is a
some fresh air and some time away from the sanitarium, he pursuades the administration to allow
him to take them to a ballgame. Unfortunately, he accidentally stumbles across a crime in
progress and ends up in hospital. The group are stranded in New York City, forced to cope with a
place which is often more bizarre than their sanitarium.

Cast:
Michael Keaton	...	Billy Caufield
Christopher Lloyd	...	Henry Sikorsky
Peter Boyle	...	Jack McDermott
Stephen Furst	...	Albert Ianuzzi
Dennis Boutsikaris	...	Dr. Weitzman
Lorraine Bracco	...	Riley
Milo O'Shea	...	Dr. Newald
Philip Bosco	...	O'Malley
James Remar	...	Gianelli
Bill Goffi	...	Singer / Accordionist
Jack Duffy	...	Bernie
Brad Sullivan	...	Sgt. Vincente
Larry Pine	...	Canning
Harold Surratt	...	Pastor Lester
Kenneth Raybourne	...	Gospel Musician

Stats:
Format                                   : AVI
Format/Info                              : Audio Video Interleave
Format profile                           : OpenDML
File size                                : 1.36 GiB
Duration                                 : 1h 47mn
Overall bit rate                         : 1 808 Kbps

Video
ID                                       : 0
Format                                   : MPEG-4 Visual
Format profile                           : Advanced Simple@L5
Format settings, BVOP                    : 2
Format settings, QPel                    : No
Format settings, GMC                     : No warppoints
Format settings, Matrix                  : Default (MPEG)
Codec ID                                 : XVID
Codec ID/Hint                            : XviD
Duration                                 : 1h 47mn
Bit rate                                 : 1 610 Kbps
Width                                    : 624 pixels
Height                                   : 336 pixels
Display aspect ratio                     : 1.857
Frame rate                               : 25.000 fps
Color space                              : YUV
Chroma subsampling                       : 4:2:0
Bit depth                                : 8 bits
Scan type                                : Progressive
Compression mode                         : Lossy
Bits/(Pixel*Frame)                       : 0.307
Stream size                              : 1.21 GiB (89%)
Writing library                          : XviD 64

Audio
ID                                       : 1
Format                                   : AC-3
Format/Info                              : Audio Coding 3
Format profile                           : Dolby Digital
Mode extension                           : CM (complete main)
Codec ID                                 : 2000
Duration                                 : 1h 47mn
Bit rate mode                            : Constant
Bit rate                                 : 192 Kbps
Channel(s)                               : 2 channels
Channel positions                        : Front: L R
Sampling rate                            : 48.0 KHz
Bit depth                                : 16 bits
Compression mode                         : Lossy
Delay relative to video                  : 40ms
Stream size                              : 148 MiB (11%)
Alignment                                : Split accross interleaves
Interleave, duration                     : 500 ms (12.50 video frames)
Interleave, preload duration             : 500 ms



Release notes:
Enjoy!

Looking for:
75TB+ Archives
DUTCH/FLEMiSH Archives
                                                                                                    
Greets: CRBS EPiSODE FiCO FLS iLS KLASSiGER LiPSYNC MADE NODLABS RUNNER SPRiNTER      
   

                                                                    ASCII DONE BY XX^NFO 2oo9     
 

RLS-Crc: 415243414445:42EECD90